<svg width="229" height="60" viewBox="0 0 229 60" fill="none" xmlns="http://www.w3.org/2000/svg">
<rect x="19.425" width="188.7" height="60" rx="20" fill="#FF3225"/>
<rect width="165.113" height="40" transform="translate(31.2188 10)" fill="white"/>
<path d="M85.3306 26H78.3306V19L79.7306 17.6H78.3306V16.2H85.3306V17.6H79.9306V21.6L81.1306 20.4H85.3306V21.8H79.9306V24.6H85.3306V26ZM94.7306 24.6C94.7306 24.8933 94.5973 25.1933 94.3306 25.5C94.0373 25.8333 93.7039 26 93.3306 26H89.1306C88.7573 26 88.4306 25.86 88.1506 25.58C87.8706 25.3 87.7306 24.9733 87.7306 24.6V23.2H89.3306V24.6H93.1306V17.6H87.7306V16.2H94.7306V24.6ZM108.935 24.6C108.935 24.9867 108.795 25.32 108.515 25.6C108.248 25.8667 107.921 26 107.535 26H101.935V24.6H107.335V21.8H103.335C102.948 21.8 102.615 21.6667 102.335 21.4C102.068 21.12 101.935 20.7867 101.935 20.4V17.6C101.935 17.2133 102.068 16.8867 102.335 16.62C102.615 16.34 102.948 16.2 103.335 16.2H108.935V17.6H103.535V20.4H107.535C107.921 20.4 108.248 20.54 108.515 20.82C108.795 21.0867 108.935 21.4133 108.935 21.8V24.6ZM118.739 24.6C118.739 24.9867 118.599 25.32 118.319 25.6C118.053 25.8667 117.726 26 117.339 26H113.139V30.2H111.739V19H113.139V20L114.139 19H117.339C117.726 19 118.053 19.14 118.319 19.42C118.599 19.6867 118.739 20.0133 118.739 20.4V24.6ZM117.339 24.8V20.2H113.139V25.8L114.139 24.8H117.339ZM128.544 24.6C128.544 24.9867 128.404 25.32 128.124 25.6C127.857 25.8667 127.531 26 127.144 26H122.944C122.557 26 122.224 25.8667 121.944 25.6C121.677 25.32 121.544 24.9867 121.544 24.6V20.4C121.544 20.0133 121.677 19.6867 121.944 19.42C122.224 19.14 122.557 19 122.944 19H127.144C127.531 19 127.857 19.14 128.124 19.42C128.404 19.6867 128.544 20.0133 128.544 20.4V24.6ZM127.144 24.8V20.2H122.944V24.8H127.144ZM136.949 21.8H135.549V20.2H132.749V26H131.349V19H132.749V20L133.749 19H135.549C135.935 19 136.262 19.14 136.529 19.42C136.809 19.6867 136.949 20.0133 136.949 20.4V21.8ZM143.742 26H140.942C140.555 26 140.222 25.8667 139.942 25.6C139.675 25.32 139.542 24.9867 139.542 24.6V20.2H137.542L138.742 19H139.542V17.6L140.942 16.2V19H143.742V20.2H140.942V24.8H143.742V26ZM151.443 19L150.223 20.2H146.843V21.8H149.643C150.03 21.8 150.356 21.94 150.623 22.22C150.903 22.4867 151.043 22.8133 151.043 23.2V24.6C151.043 24.9867 150.903 25.32 150.623 25.6C150.356 25.8667 150.03 26 149.643 26H145.443V24.8H149.643V23H146.843C146.456 23 146.123 22.8667 145.843 22.6C145.576 22.32 145.443 21.9867 145.443 21.6V20.4C145.443 20.0133 145.576 19.6867 145.843 19.42C146.123 19.14 146.456 19 146.843 19H151.443ZM58.0361 45H56.4361V35.2H58.0361V45ZM65.8314 45H63.0314C62.6447 45 62.3114 44.8667 62.0314 44.6C61.7647 44.32 61.6314 43.9867 61.6314 43.6V39.2H59.6314L60.8314 38H61.6314V36.6L63.0314 35.2V38H65.8314V39.2H63.0314V43.8H65.8314V45ZM69.6529 36.8L68.4529 38.2V35.2H67.6529V33.6H68.2529C68.6396 33.6 68.9663 33.74 69.2329 34.02C69.5129 34.2867 69.6529 34.6133 69.6529 35V36.8ZM78.3376 38L77.1176 39.2H73.7376V40.8H76.5376C76.9243 40.8 77.251 40.94 77.5176 41.22C77.7976 41.4867 77.9376 41.8133 77.9376 42.2V43.6C77.9376 43.9867 77.7976 44.32 77.5176 44.6C77.251 44.8667 76.9243 45 76.5376 45H72.3376V43.8H76.5376V42H73.7376C73.351 42 73.0176 41.8667 72.7376 41.6C72.471 41.32 72.3376 40.9867 72.3376 40.6V39.4C72.3376 39.0133 72.471 38.6867 72.7376 38.42C73.0176 38.14 73.351 38 73.7376 38H78.3376ZM86.4345 45H84.8345V35.2H86.4345V45ZM96.6298 45H95.2298V39.2H91.0298V45H89.6298V38H91.0298V39L92.0298 38H95.2298C95.6165 38 95.9432 38.14 96.2098 38.42C96.4898 38.6867 96.6298 39.0133 96.6298 39.4V45ZM109.538 36.6H106.638V45H105.038V36.6H102.138V35.2H109.538V36.6ZM118.236 45H116.836V39.2H112.636V45H111.236V34.8L112.636 33.4V39L113.636 38H116.836C117.223 38 117.549 38.14 117.816 38.42C118.096 38.6867 118.236 39.0133 118.236 39.4V45ZM128.036 45H122.436C122.049 45 121.716 44.8667 121.436 44.6C121.169 44.32 121.036 43.9867 121.036 43.6V39.4C121.036 39.0133 121.169 38.6867 121.436 38.42C121.716 38.14 122.049 38 122.436 38H126.636C127.023 38 127.349 38.14 127.616 38.42C127.896 38.6867 128.036 39.0133 128.036 39.4V40.8L126.636 42.2H122.636L123.836 41H126.636V39.2H122.436V43.8H128.036V45ZM143.039 44.98H140.239L136.439 36.68H135.639L136.239 37.68V44.98H134.639V35.18H137.459L141.239 43.48H142.039L141.439 42.48V35.18H143.039V44.98ZM153.231 45H147.631C147.245 45 146.911 44.8667 146.631 44.6C146.365 44.32 146.231 43.9867 146.231 43.6V39.4C146.231 39.0133 146.365 38.6867 146.631 38.42C146.911 38.14 147.245 38 147.631 38H151.831C152.218 38 152.545 38.14 152.811 38.42C153.091 38.6867 153.231 39.0133 153.231 39.4V40.8L151.831 42.2H147.831L149.031 41H151.831V39.2H147.631V43.8H153.231V45ZM165.431 38L163.511 45H161.311L160.231 40.22H160.031L158.911 45H156.711L154.831 38H156.331L157.631 43.84H158.031L159.471 38H160.871L162.231 43.84H162.631L163.931 38H165.431ZM173.338 38L172.118 39.2H168.738V40.8H171.538C171.924 40.8 172.251 40.94 172.518 41.22C172.798 41.4867 172.938 41.8133 172.938 42.2V43.6C172.938 43.9867 172.798 44.32 172.518 44.6C172.251 44.8667 171.924 45 171.538 45H167.338V43.8H171.538V42H168.738C168.351 42 168.018 41.8667 167.738 41.6C167.471 41.32 167.338 40.9867 167.338 40.6V39.4C167.338 39.0133 167.471 38.6867 167.738 38.42C168.018 38.14 168.351 38 168.738 38H173.338Z" fill="#FF3225"/>
<path d="M85.3306 26V26.5H85.8306V26H85.3306ZM78.3306 26H77.8306V26.5H78.3306V26ZM78.3306 19L77.977 18.6464L77.8306 18.7929V19H78.3306ZM79.7306 17.6L80.0842 17.9536L80.9377 17.1H79.7306V17.6ZM78.3306 17.6H77.8306V18.1H78.3306V17.6ZM78.3306 16.2V15.7H77.8306V16.2H78.3306ZM85.3306 16.2H85.8306V15.7H85.3306V16.2ZM85.3306 17.6V18.1H85.8306V17.6H85.3306ZM79.9306 17.6V17.1H79.4306V17.6H79.9306ZM79.9306 21.6H79.4306V22.8071L80.2842 21.9536L79.9306 21.6ZM81.1306 20.4V19.9H80.9235L80.777 20.0464L81.1306 20.4ZM85.3306 20.4H85.8306V19.9H85.3306V20.4ZM85.3306 21.8V22.3H85.8306V21.8H85.3306ZM79.9306 21.8V21.3H79.4306V21.8H79.9306ZM79.9306 24.6H79.4306V25.1H79.9306V24.6ZM85.3306 24.6H85.8306V24.1H85.3306V24.6ZM85.3306 25.5H78.3306V26.5H85.3306V25.5ZM78.8306 26V19H77.8306V26H78.8306ZM78.6842 19.3536L80.0842 17.9536L79.377 17.2464L77.977 18.6464L78.6842 19.3536ZM79.7306 17.1H78.3306V18.1H79.7306V17.1ZM78.8306 17.6V16.2H77.8306V17.6H78.8306ZM78.3306 16.7H85.3306V15.7H78.3306V16.7ZM84.8306 16.2V17.6H85.8306V16.2H84.8306ZM85.3306 17.1H79.9306V18.1H85.3306V17.1ZM79.4306 17.6V21.6H80.4306V17.6H79.4306ZM80.2842 21.9536L81.4842 20.7536L80.777 20.0464L79.577 21.2464L80.2842 21.9536ZM81.1306 20.9H85.3306V19.9H81.1306V20.9ZM84.8306 20.4V21.8H85.8306V20.4H84.8306ZM85.3306 21.3H79.9306V22.3H85.3306V21.3ZM79.4306 21.8V24.6H80.4306V21.8H79.4306ZM79.9306 25.1H85.3306V24.1H79.9306V25.1ZM84.8306 24.6V26H85.8306V24.6H84.8306ZM94.3306 25.5L94.706 25.8303L94.7079 25.8281L94.3306 25.5ZM88.1506 25.58L87.797 25.9336L87.797 25.9336L88.1506 25.58ZM87.7306 23.2V22.7H87.2306V23.2H87.7306ZM89.3306 23.2H89.8306V22.7H89.3306V23.2ZM89.3306 24.6H88.8306V25.1H89.3306V24.6ZM93.1306 24.6V25.1H93.6306V24.6H93.1306ZM93.1306 17.6H93.6306V17.1H93.1306V17.6ZM87.7306 17.6H87.2306V18.1H87.7306V17.6ZM87.7306 16.2V15.7H87.2306V16.2H87.7306ZM94.7306 16.2H95.2306V15.7H94.7306V16.2ZM94.2306 24.6C94.2306 24.7333 94.1713 24.9212 93.9533 25.1719L94.7079 25.8281C95.0232 25.4654 95.2306 25.0534 95.2306 24.6H94.2306ZM93.9552 25.1697C93.7371 25.4175 93.5329 25.5 93.3306 25.5V26.5C93.875 26.5 94.3374 26.2491 94.706 25.8303L93.9552 25.1697ZM93.3306 25.5H89.1306V26.5H93.3306V25.5ZM89.1306 25.5C88.8985 25.5 88.6967 25.419 88.5042 25.2264L87.797 25.9336C88.1645 26.301 88.616 26.5 89.1306 26.5V25.5ZM88.5042 25.2264C88.3116 25.0339 88.2306 24.8321 88.2306 24.6H87.2306C87.2306 25.1146 87.4296 25.5661 87.797 25.9336L88.5042 25.2264ZM88.2306 24.6V23.2H87.2306V24.6H88.2306ZM87.7306 23.7H89.3306V22.7H87.7306V23.7ZM88.8306 23.2V24.6H89.8306V23.2H88.8306ZM89.3306 25.1H93.1306V24.1H89.3306V25.1ZM93.6306 24.6V17.6H92.6306V24.6H93.6306ZM93.1306 17.1H87.7306V18.1H93.1306V17.1ZM88.2306 17.6V16.2H87.2306V17.6H88.2306ZM87.7306 16.7H94.7306V15.7H87.7306V16.7ZM94.2306 16.2V24.6H95.2306V16.2H94.2306ZM108.515 25.6L108.868 25.9536L108.868 25.9536L108.515 25.6ZM101.935 26H101.435V26.5H101.935V26ZM101.935 24.6V24.1H101.435V24.6H101.935ZM107.335 24.6V25.1H107.835V24.6H107.335ZM107.335 21.8H107.835V21.3H107.335V21.8ZM102.335 21.4L101.972 21.7448L101.981 21.7537L101.99 21.7621L102.335 21.4ZM102.335 16.62L102.688 16.9736L102.688 16.9736L102.335 16.62ZM108.935 16.2H109.435V15.7H108.935V16.2ZM108.935 17.6V18.1H109.435V17.6H108.935ZM103.535 17.6V17.1H103.035V17.6H103.535ZM103.535 20.4H103.035V20.9H103.535V20.4ZM108.515 20.82L108.152 21.1648L108.161 21.1737L108.17 21.1821L108.515 20.82ZM108.435 24.6C108.435 24.8505 108.35 25.0577 108.161 25.2464L108.868 25.9536C109.239 25.5823 109.435 25.1228 109.435 24.6H108.435ZM108.161 25.2464C107.991 25.4167 107.792 25.5 107.535 25.5V26.5C108.05 26.5 108.505 26.3166 108.868 25.9536L108.161 25.2464ZM107.535 25.5H101.935V26.5H107.535V25.5ZM102.435 26V24.6H101.435V26H102.435ZM101.935 25.1H107.335V24.1H101.935V25.1ZM107.835 24.6V21.8H106.835V24.6H107.835ZM107.335 21.3H103.335V22.3H107.335V21.3ZM103.335 21.3C103.076 21.3 102.866 21.2161 102.679 21.0379L101.99 21.7621C102.363 22.1173 102.819 22.3 103.335 22.3V21.3ZM102.697 21.0552C102.518 20.8681 102.435 20.6583 102.435 20.4H101.435C101.435 20.9151 101.617 21.3719 101.972 21.7448L102.697 21.0552ZM102.435 20.4V17.6H101.435V20.4H102.435ZM102.435 17.6C102.435 17.3422 102.518 17.1438 102.688 16.9736L101.981 16.2664C101.618 16.6295 101.435 17.0845 101.435 17.6H102.435ZM102.688 16.9736C102.877 16.7848 103.084 16.7 103.335 16.7V15.7C102.812 15.7 102.352 15.8952 101.981 16.2664L102.688 16.9736ZM103.335 16.7H108.935V15.7H103.335V16.7ZM108.435 16.2V17.6H109.435V16.2H108.435ZM108.935 17.1H103.535V18.1H108.935V17.1ZM103.035 17.6V20.4H104.035V17.6H103.035ZM103.535 20.9H107.535V19.9H103.535V20.9ZM107.535 20.9C107.784 20.9 107.98 20.9839 108.152 21.1648L108.877 20.4752C108.516 20.0961 108.058 19.9 107.535 19.9V20.9ZM108.17 21.1821C108.351 21.3544 108.435 21.5502 108.435 21.8H109.435C109.435 21.2765 109.238 20.819 108.859 20.4579L108.17 21.1821ZM108.435 21.8V24.6H109.435V21.8H108.435ZM118.319 25.6L118.673 25.9536L118.673 25.9536L118.319 25.6ZM113.139 26V25.5H112.639V26H113.139ZM113.139 30.2V30.7H113.639V30.2H113.139ZM111.739 30.2H111.239V30.7H111.739V30.2ZM111.739 19V18.5H111.239V19H111.739ZM113.139 19H113.639V18.5H113.139V19ZM113.139 20H112.639V21.2071L113.493 20.3536L113.139 20ZM114.139 19V18.5H113.932L113.786 18.6464L114.139 19ZM118.319 19.42L117.957 19.7648L117.966 19.7737L117.974 19.7821L118.319 19.42ZM117.339 24.8V25.3H117.839V24.8H117.339ZM117.339 20.2H117.839V19.7H117.339V20.2ZM113.139 20.2V19.7H112.639V20.2H113.139ZM113.139 25.8H112.639V27.0071L113.493 26.1536L113.139 25.8ZM114.139 24.8V24.3H113.932L113.786 24.4464L114.139 24.8ZM118.239 24.6C118.239 24.8505 118.154 25.0577 117.966 25.2464L118.673 25.9536C119.044 25.5823 119.239 25.1228 119.239 24.6H118.239ZM117.966 25.2464C117.795 25.4167 117.597 25.5 117.339 25.5V26.5C117.855 26.5 118.31 26.3166 118.673 25.9536L117.966 25.2464ZM117.339 25.5H113.139V26.5H117.339V25.5ZM112.639 26V30.2H113.639V26H112.639ZM113.139 29.7H111.739V30.7H113.139V29.7ZM112.239 30.2V19H111.239V30.2H112.239ZM111.739 19.5H113.139V18.5H111.739V19.5ZM112.639 19V20H113.639V19H112.639ZM113.493 20.3536L114.493 19.3536L113.786 18.6464L112.786 19.6464L113.493 20.3536ZM114.139 19.5H117.339V18.5H114.139V19.5ZM117.339 19.5C117.589 19.5 117.785 19.5839 117.957 19.7648L118.681 19.0752C118.32 18.6961 117.863 18.5 117.339 18.5V19.5ZM117.974 19.7821C118.155 19.9544 118.239 20.1502 118.239 20.4H119.239C119.239 19.8765 119.043 19.419 118.664 19.0579L117.974 19.7821ZM118.239 20.4V24.6H119.239V20.4H118.239ZM117.839 24.8V20.2H116.839V24.8H117.839ZM117.339 19.7H113.139V20.7H117.339V19.7ZM112.639 20.2V25.8H113.639V20.2H112.639ZM113.493 26.1536L114.493 25.1536L113.786 24.4464L112.786 25.4464L113.493 26.1536ZM114.139 25.3H117.339V24.3H114.139V25.3ZM128.124 25.6L128.477 25.9536L128.477 25.9536L128.124 25.6ZM121.944 25.6L121.582 25.9448L121.59 25.9537L121.599 25.9621L121.944 25.6ZM121.944 19.42L121.59 19.0664L121.59 19.0664L121.944 19.42ZM128.124 19.42L127.762 19.7648L127.77 19.7737L127.779 19.7821L128.124 19.42ZM127.144 24.8V25.3H127.644V24.8H127.144ZM127.144 20.2H127.644V19.7H127.144V20.2ZM122.944 20.2V19.7H122.444V20.2H122.944ZM122.944 24.8H122.444V25.3H122.944V24.8ZM128.044 24.6C128.044 24.8505 127.959 25.0577 127.77 25.2464L128.477 25.9536C128.849 25.5823 129.044 25.1228 129.044 24.6H128.044ZM127.77 25.2464C127.6 25.4167 127.402 25.5 127.144 25.5V26.5C127.659 26.5 128.114 26.3166 128.477 25.9536L127.77 25.2464ZM127.144 25.5H122.944V26.5H127.144V25.5ZM122.944 25.5C122.686 25.5 122.476 25.4161 122.289 25.2379L121.599 25.9621C121.972 26.3173 122.429 26.5 122.944 26.5V25.5ZM122.306 25.2552C122.128 25.0681 122.044 24.8583 122.044 24.6H121.044C121.044 25.1151 121.227 25.5719 121.582 25.9448L122.306 25.2552ZM122.044 24.6V20.4H121.044V24.6H122.044ZM122.044 20.4C122.044 20.1422 122.127 19.9438 122.297 19.7736L121.59 19.0664C121.227 19.4295 121.044 19.8845 121.044 20.4H122.044ZM122.297 19.7736C122.486 19.5848 122.693 19.5 122.944 19.5V18.5C122.421 18.5 121.962 18.6952 121.59 19.0664L122.297 19.7736ZM122.944 19.5H127.144V18.5H122.944V19.5ZM127.144 19.5C127.394 19.5 127.59 19.5839 127.762 19.7648L128.486 19.0752C128.125 18.6961 127.667 18.5 127.144 18.5V19.5ZM127.779 19.7821C127.96 19.9544 128.044 20.1502 128.044 20.4H129.044C129.044 19.8765 128.848 19.419 128.469 19.0579L127.779 19.7821ZM128.044 20.4V24.6H129.044V20.4H128.044ZM127.644 24.8V20.2H126.644V24.8H127.644ZM127.144 19.7H122.944V20.7H127.144V19.7ZM122.444 20.2V24.8H123.444V20.2H122.444ZM122.944 25.3H127.144V24.3H122.944V25.3ZM136.949 21.8V22.3H137.449V21.8H136.949ZM135.549 21.8H135.049V22.3H135.549V21.8ZM135.549 20.2H136.049V19.7H135.549V20.2ZM132.749 20.2V19.7H132.249V20.2H132.749ZM132.749 26V26.5H133.249V26H132.749ZM131.349 26H130.849V26.5H131.349V26ZM131.349 19V18.5H130.849V19H131.349ZM132.749 19H133.249V18.5H132.749V19ZM132.749 20H132.249V21.2071L133.102 20.3536L132.749 20ZM133.749 19V18.5H133.541L133.395 18.6464L133.749 19ZM136.529 19.42L136.167 19.7648L136.175 19.7737L136.184 19.7821L136.529 19.42ZM136.949 21.3H135.549V22.3H136.949V21.3ZM136.049 21.8V20.2H135.049V21.8H136.049ZM135.549 19.7H132.749V20.7H135.549V19.7ZM132.249 20.2V26H133.249V20.2H132.249ZM132.749 25.5H131.349V26.5H132.749V25.5ZM131.849 26V19H130.849V26H131.849ZM131.349 19.5H132.749V18.5H131.349V19.5ZM132.249 19V20H133.249V19H132.249ZM133.102 20.3536L134.102 19.3536L133.395 18.6464L132.395 19.6464L133.102 20.3536ZM133.749 19.5H135.549V18.5H133.749V19.5ZM135.549 19.5C135.798 19.5 135.994 19.5839 136.167 19.7648L136.891 19.0752C136.53 18.6961 136.072 18.5 135.549 18.5V19.5ZM136.184 19.7821C136.365 19.9544 136.449 20.1502 136.449 20.4H137.449C137.449 19.8765 137.252 19.419 136.873 19.0579L136.184 19.7821ZM136.449 20.4V21.8H137.449V20.4H136.449ZM143.742 26V26.5H144.242V26H143.742ZM139.942 25.6L139.579 25.9448L139.588 25.9537L139.597 25.9621L139.942 25.6ZM139.542 20.2H140.042V19.7H139.542V20.2ZM137.542 20.2L137.188 19.8464L136.334 20.7H137.542V20.2ZM138.742 19V18.5H138.534L138.388 18.6464L138.742 19ZM139.542 19V19.5H140.042V19H139.542ZM139.542 17.6L139.188 17.2464L139.042 17.3929V17.6H139.542ZM140.942 16.2H141.442V14.9929L140.588 15.8464L140.942 16.2ZM140.942 19H140.442V19.5H140.942V19ZM143.742 19H144.242V18.5H143.742V19ZM143.742 20.2V20.7H144.242V20.2H143.742ZM140.942 20.2V19.7H140.442V20.2H140.942ZM140.942 24.8H140.442V25.3H140.942V24.8ZM143.742 24.8H144.242V24.3H143.742V24.8ZM143.742 25.5H140.942V26.5H143.742V25.5ZM140.942 25.5C140.683 25.5 140.473 25.4161 140.286 25.2379L139.597 25.9621C139.97 26.3173 140.426 26.5 140.942 26.5V25.5ZM140.304 25.2552C140.125 25.0681 140.042 24.8583 140.042 24.6H139.042C139.042 25.1151 139.224 25.5719 139.579 25.9448L140.304 25.2552ZM140.042 24.6V20.2H139.042V24.6H140.042ZM139.542 19.7H137.542V20.7H139.542V19.7ZM137.895 20.5536L139.095 19.3536L138.388 18.6464L137.188 19.8464L137.895 20.5536ZM138.742 19.5H139.542V18.5H138.742V19.5ZM140.042 19V17.6H139.042V19H140.042ZM139.895 17.9536L141.295 16.5536L140.588 15.8464L139.188 17.2464L139.895 17.9536ZM140.442 16.2V19H141.442V16.2H140.442ZM140.942 19.5H143.742V18.5H140.942V19.5ZM143.242 19V20.2H144.242V19H143.242ZM143.742 19.7H140.942V20.7H143.742V19.7ZM140.442 20.2V24.8H141.442V20.2H140.442ZM140.942 25.3H143.742V24.3H140.942V25.3ZM143.242 24.8V26H144.242V24.8H143.242ZM151.443 19L151.794 19.3565L152.664 18.5H151.443V19ZM150.223 20.2V20.7H150.428L150.574 20.5565L150.223 20.2ZM146.843 20.2V19.7H146.343V20.2H146.843ZM146.843 21.8H146.343V22.3H146.843V21.8ZM150.623 22.22L150.261 22.5648L150.269 22.5737L150.278 22.5821L150.623 22.22ZM150.623 25.6L150.977 25.9536L150.977 25.9536L150.623 25.6ZM145.443 26H144.943V26.5H145.443V26ZM145.443 24.8V24.3H144.943V24.8H145.443ZM149.643 24.8V25.3H150.143V24.8H149.643ZM149.643 23H150.143V22.5H149.643V23ZM145.843 22.6L145.481 22.9448L145.489 22.9537L145.498 22.9621L145.843 22.6ZM145.843 19.42L145.49 19.0664L145.49 19.0664L145.843 19.42ZM151.092 18.6435L149.872 19.8435L150.574 20.5565L151.794 19.3565L151.092 18.6435ZM150.223 19.7H146.843V20.7H150.223V19.7ZM146.343 20.2V21.8H147.343V20.2H146.343ZM146.843 22.3H149.643V21.3H146.843V22.3ZM149.643 22.3C149.893 22.3 150.089 22.3839 150.261 22.5648L150.985 21.8752C150.624 21.4961 150.167 21.3 149.643 21.3V22.3ZM150.278 22.5821C150.459 22.7544 150.543 22.9502 150.543 23.2H151.543C151.543 22.6765 151.347 22.219 150.968 21.8579L150.278 22.5821ZM150.543 23.2V24.6H151.543V23.2H150.543ZM150.543 24.6C150.543 24.8505 150.458 25.0577 150.27 25.2464L150.977 25.9536C151.348 25.5823 151.543 25.1228 151.543 24.6H150.543ZM150.27 25.2464C150.099 25.4167 149.901 25.5 149.643 25.5V26.5C150.159 26.5 150.614 26.3166 150.977 25.9536L150.27 25.2464ZM149.643 25.5H145.443V26.5H149.643V25.5ZM145.943 26V24.8H144.943V26H145.943ZM145.443 25.3H149.643V24.3H145.443V25.3ZM150.143 24.8V23H149.143V24.8H150.143ZM149.643 22.5H146.843V23.5H149.643V22.5ZM146.843 22.5C146.585 22.5 146.375 22.4161 146.188 22.2379L145.498 22.9621C145.871 23.3173 146.328 23.5 146.843 23.5V22.5ZM146.205 22.2552C146.027 22.0681 145.943 21.8583 145.943 21.6H144.943C144.943 22.1151 145.126 22.5719 145.481 22.9448L146.205 22.2552ZM145.943 21.6V20.4H144.943V21.6H145.943ZM145.943 20.4C145.943 20.1422 146.026 19.9438 146.197 19.7736L145.49 19.0664C145.126 19.4295 144.943 19.8845 144.943 20.4H145.943ZM146.197 19.7736C146.385 19.5848 146.593 19.5 146.843 19.5V18.5C146.32 18.5 145.861 18.6952 145.49 19.0664L146.197 19.7736ZM146.843 19.5H151.443V18.5H146.843V19.5ZM58.0361 45V45.5H58.5361V45H58.0361ZM56.4361 45H55.9361V45.5H56.4361V45ZM56.4361 35.2V34.7H55.9361V35.2H56.4361ZM58.0361 35.2H58.5361V34.7H58.0361V35.2ZM58.0361 44.5H56.4361V45.5H58.0361V44.5ZM56.9361 45V35.2H55.9361V45H56.9361ZM56.4361 35.7H58.0361V34.7H56.4361V35.7ZM57.5361 35.2V45H58.5361V35.2H57.5361ZM65.8314 45V45.5H66.3314V45H65.8314ZM62.0314 44.6L61.6693 44.9448L61.6777 44.9537L61.6866 44.9621L62.0314 44.6ZM61.6314 39.2H62.1314V38.7H61.6314V39.2ZM59.6314 39.2L59.2778 38.8464L58.4243 39.7H59.6314V39.2ZM60.8314 38V37.5H60.6243L60.4778 37.6464L60.8314 38ZM61.6314 38V38.5H62.1314V38H61.6314ZM61.6314 36.6L61.2778 36.2464L61.1314 36.3929V36.6H61.6314ZM63.0314 35.2H63.5314V33.9929L62.6778 34.8464L63.0314 35.2ZM63.0314 38H62.5314V38.5H63.0314V38ZM65.8314 38H66.3314V37.5H65.8314V38ZM65.8314 39.2V39.7H66.3314V39.2H65.8314ZM63.0314 39.2V38.7H62.5314V39.2H63.0314ZM63.0314 43.8H62.5314V44.3H63.0314V43.8ZM65.8314 43.8H66.3314V43.3H65.8314V43.8ZM65.8314 44.5H63.0314V45.5H65.8314V44.5ZM63.0314 44.5C62.7731 44.5 62.5632 44.4161 62.3762 44.2379L61.6866 44.9621C62.0595 45.3173 62.5163 45.5 63.0314 45.5V44.5ZM62.3935 44.2552C62.2153 44.0681 62.1314 43.8583 62.1314 43.6H61.1314C61.1314 44.1151 61.3141 44.5719 61.6693 44.9448L62.3935 44.2552ZM62.1314 43.6V39.2H61.1314V43.6H62.1314ZM61.6314 38.7H59.6314V39.7H61.6314V38.7ZM59.9849 39.5536L61.1849 38.3536L60.4778 37.6464L59.2778 38.8464L59.9849 39.5536ZM60.8314 38.5H61.6314V37.5H60.8314V38.5ZM62.1314 38V36.6H61.1314V38H62.1314ZM61.9849 36.9536L63.3849 35.5536L62.6778 34.8464L61.2778 36.2464L61.9849 36.9536ZM62.5314 35.2V38H63.5314V35.2H62.5314ZM63.0314 38.5H65.8314V37.5H63.0314V38.5ZM65.3314 38V39.2H66.3314V38H65.3314ZM65.8314 38.7H63.0314V39.7H65.8314V38.7ZM62.5314 39.2V43.8H63.5314V39.2H62.5314ZM63.0314 44.3H65.8314V43.3H63.0314V44.3ZM65.3314 43.8V45H66.3314V43.8H65.3314ZM69.6529 36.8L70.0326 37.1254L70.1529 36.985V36.8H69.6529ZM68.4529 38.2H67.9529V39.5516L68.8326 38.5254L68.4529 38.2ZM68.4529 35.2H68.9529V34.7H68.4529V35.2ZM67.6529 35.2H67.1529V35.7H67.6529V35.2ZM67.6529 33.6V33.1H67.1529V33.6H67.6529ZM69.2329 34.02L68.8709 34.3648L68.8793 34.3737L68.8881 34.3821L69.2329 34.02ZM69.2733 36.4746L68.0733 37.8746L68.8326 38.5254L70.0326 37.1254L69.2733 36.4746ZM68.9529 38.2V35.2H67.9529V38.2H68.9529ZM68.4529 34.7H67.6529V35.7H68.4529V34.7ZM68.1529 35.2V33.6H67.1529V35.2H68.1529ZM67.6529 34.1H68.2529V33.1H67.6529V34.1ZM68.2529 34.1C68.5028 34.1 68.6986 34.1839 68.8709 34.3648L69.595 33.6752C69.234 33.2961 68.7765 33.1 68.2529 33.1V34.1ZM68.8881 34.3821C69.069 34.5544 69.1529 34.7502 69.1529 35H70.1529C70.1529 34.4765 69.9569 34.019 69.5778 33.6579L68.8881 34.3821ZM69.1529 35V36.8H70.1529V35H69.1529ZM78.3376 38L78.6883 38.3565L79.559 37.5H78.3376V38ZM77.1176 39.2V39.7H77.3223L77.4683 39.5565L77.1176 39.2ZM73.7376 39.2V38.7H73.2376V39.2H73.7376ZM73.7376 40.8H73.2376V41.3H73.7376V40.8ZM77.5176 41.22L77.1556 41.5648L77.164 41.5737L77.1728 41.5821L77.5176 41.22ZM77.5176 44.6L77.8712 44.9536L77.8712 44.9536L77.5176 44.6ZM72.3376 45H71.8376V45.5H72.3376V45ZM72.3376 43.8V43.3H71.8376V43.8H72.3376ZM76.5376 43.8V44.3H77.0376V43.8H76.5376ZM76.5376 42H77.0376V41.5H76.5376V42ZM72.7376 41.6L72.3756 41.9448L72.384 41.9537L72.3928 41.9621L72.7376 41.6ZM72.7376 38.42L72.3841 38.0664L72.3841 38.0664L72.7376 38.42ZM77.987 37.6435L76.767 38.8435L77.4683 39.5565L78.6883 38.3565L77.987 37.6435ZM77.1176 38.7H73.7376V39.7H77.1176V38.7ZM73.2376 39.2V40.8H74.2376V39.2H73.2376ZM73.7376 41.3H76.5376V40.3H73.7376V41.3ZM76.5376 41.3C76.7875 41.3 76.9833 41.3839 77.1556 41.5648L77.8797 40.8752C77.5187 40.4961 77.0611 40.3 76.5376 40.3V41.3ZM77.1728 41.5821C77.3537 41.7544 77.4376 41.9502 77.4376 42.2H78.4376C78.4376 41.6765 78.2416 41.219 77.8625 40.8579L77.1728 41.5821ZM77.4376 42.2V43.6H78.4376V42.2H77.4376ZM77.4376 43.6C77.4376 43.8505 77.3528 44.0577 77.1641 44.2464L77.8712 44.9536C78.2424 44.5823 78.4376 44.1228 78.4376 43.6H77.4376ZM77.1641 44.2464C76.9938 44.4167 76.7954 44.5 76.5376 44.5V45.5C77.0532 45.5 77.5081 45.3166 77.8712 44.9536L77.1641 44.2464ZM76.5376 44.5H72.3376V45.5H76.5376V44.5ZM72.8376 45V43.8H71.8376V45H72.8376ZM72.3376 44.3H76.5376V43.3H72.3376V44.3ZM77.0376 43.8V42H76.0376V43.8H77.0376ZM76.5376 41.5H73.7376V42.5H76.5376V41.5ZM73.7376 41.5C73.4794 41.5 73.2695 41.4161 73.0825 41.2379L72.3928 41.9621C72.7658 42.3173 73.2226 42.5 73.7376 42.5V41.5ZM73.0997 41.2552C72.9216 41.0681 72.8376 40.8583 72.8376 40.6H71.8376C71.8376 41.1151 72.0204 41.5719 72.3756 41.9448L73.0997 41.2552ZM72.8376 40.6V39.4H71.8376V40.6H72.8376ZM72.8376 39.4C72.8376 39.1422 72.9209 38.9438 73.0912 38.7736L72.3841 38.0664C72.021 38.4295 71.8376 38.8845 71.8376 39.4H72.8376ZM73.0912 38.7736C73.2799 38.5848 73.4871 38.5 73.7376 38.5V37.5C73.2148 37.5 72.7553 37.6952 72.3841 38.0664L73.0912 38.7736ZM73.7376 38.5H78.3376V37.5H73.7376V38.5ZM86.4345 45V45.5H86.9345V45H86.4345ZM84.8345 45H84.3345V45.5H84.8345V45ZM84.8345 35.2V34.7H84.3345V35.2H84.8345ZM86.4345 35.2H86.9345V34.7H86.4345V35.2ZM86.4345 44.5H84.8345V45.5H86.4345V44.5ZM85.3345 45V35.2H84.3345V45H85.3345ZM84.8345 35.7H86.4345V34.7H84.8345V35.7ZM85.9345 35.2V45H86.9345V35.2H85.9345ZM96.6298 45V45.5H97.1298V45H96.6298ZM95.2298 45H94.7298V45.5H95.2298V45ZM95.2298 39.2H95.7298V38.7H95.2298V39.2ZM91.0298 39.2V38.7H90.5298V39.2H91.0298ZM91.0298 45V45.5H91.5298V45H91.0298ZM89.6298 45H89.1298V45.5H89.6298V45ZM89.6298 38V37.5H89.1298V38H89.6298ZM91.0298 38H91.5298V37.5H91.0298V38ZM91.0298 39H90.5298V40.2071L91.3834 39.3536L91.0298 39ZM92.0298 38V37.5H91.8227L91.6763 37.6464L92.0298 38ZM96.2098 38.42L95.8478 38.7648L95.8562 38.7737L95.865 38.7821L96.2098 38.42ZM96.6298 44.5H95.2298V45.5H96.6298V44.5ZM95.7298 45V39.2H94.7298V45H95.7298ZM95.2298 38.7H91.0298V39.7H95.2298V38.7ZM90.5298 39.2V45H91.5298V39.2H90.5298ZM91.0298 44.5H89.6298V45.5H91.0298V44.5ZM90.1298 45V38H89.1298V45H90.1298ZM89.6298 38.5H91.0298V37.5H89.6298V38.5ZM90.5298 38V39H91.5298V38H90.5298ZM91.3834 39.3536L92.3834 38.3536L91.6763 37.6464L90.6763 38.6464L91.3834 39.3536ZM92.0298 38.5H95.2298V37.5H92.0298V38.5ZM95.2298 38.5C95.4796 38.5 95.6755 38.5839 95.8478 38.7648L96.5719 38.0752C96.2109 37.6961 95.7533 37.5 95.2298 37.5V38.5ZM95.865 38.7821C96.0459 38.9544 96.1298 39.1502 96.1298 39.4H97.1298C97.1298 38.8765 96.9337 38.419 96.5546 38.0579L95.865 38.7821ZM96.1298 39.4V45H97.1298V39.4H96.1298ZM109.538 36.6V37.1H110.038V36.6H109.538ZM106.638 36.6V36.1H106.138V36.6H106.638ZM106.638 45V45.5H107.138V45H106.638ZM105.038 45H104.538V45.5H105.038V45ZM105.038 36.6H105.538V36.1H105.038V36.6ZM102.138 36.6H101.638V37.1H102.138V36.6ZM102.138 35.2V34.7H101.638V35.2H102.138ZM109.538 35.2H110.038V34.7H109.538V35.2ZM109.538 36.1H106.638V37.1H109.538V36.1ZM106.138 36.6V45H107.138V36.6H106.138ZM106.638 44.5H105.038V45.5H106.638V44.5ZM105.538 45V36.6H104.538V45H105.538ZM105.038 36.1H102.138V37.1H105.038V36.1ZM102.638 36.6V35.2H101.638V36.6H102.638ZM102.138 35.7H109.538V34.7H102.138V35.7ZM109.038 35.2V36.6H110.038V35.2H109.038ZM118.236 45V45.5H118.736V45H118.236ZM116.836 45H116.336V45.5H116.836V45ZM116.836 39.2H117.336V38.7H116.836V39.2ZM112.636 39.2V38.7H112.136V39.2H112.636ZM112.636 45V45.5H113.136V45H112.636ZM111.236 45H110.736V45.5H111.236V45ZM111.236 34.8L110.883 34.4464L110.736 34.5929V34.8H111.236ZM112.636 33.4H113.136V32.1929L112.283 33.0464L112.636 33.4ZM112.636 39H112.136V40.2071L112.99 39.3536L112.636 39ZM113.636 38V37.5H113.429L113.283 37.6464L113.636 38ZM117.816 38.42L117.454 38.7648L117.462 38.7737L117.471 38.7821L117.816 38.42ZM118.236 44.5H116.836V45.5H118.236V44.5ZM117.336 45V39.2H116.336V45H117.336ZM116.836 38.7H112.636V39.7H116.836V38.7ZM112.136 39.2V45H113.136V39.2H112.136ZM112.636 44.5H111.236V45.5H112.636V44.5ZM111.736 45V34.8H110.736V45H111.736ZM111.59 35.1536L112.99 33.7536L112.283 33.0464L110.883 34.4464L111.59 35.1536ZM112.136 33.4V39H113.136V33.4H112.136ZM112.99 39.3536L113.99 38.3536L113.283 37.6464L112.283 38.6464L112.99 39.3536ZM113.636 38.5H116.836V37.5H113.636V38.5ZM116.836 38.5C117.086 38.5 117.282 38.5839 117.454 38.7648L118.178 38.0752C117.817 37.6961 117.36 37.5 116.836 37.5V38.5ZM117.471 38.7821C117.652 38.9544 117.736 39.1502 117.736 39.4H118.736C118.736 38.8765 118.54 38.419 118.161 38.0579L117.471 38.7821ZM117.736 39.4V45H118.736V39.4H117.736ZM128.036 45V45.5H128.536V45H128.036ZM121.436 44.6L121.074 44.9448L121.082 44.9537L121.091 44.9621L121.436 44.6ZM121.436 38.42L121.083 38.0664L121.083 38.0664L121.436 38.42ZM127.616 38.42L127.254 38.7648L127.262 38.7737L127.271 38.7821L127.616 38.42ZM128.036 40.8L128.39 41.1536L128.536 41.0071V40.8H128.036ZM126.636 42.2V42.7H126.843L126.99 42.5536L126.636 42.2ZM122.636 42.2L122.283 41.8464L121.429 42.7H122.636V42.2ZM123.836 41V40.5H123.629L123.483 40.6464L123.836 41ZM126.636 41V41.5H127.136V41H126.636ZM126.636 39.2H127.136V38.7H126.636V39.2ZM122.436 39.2V38.7H121.936V39.2H122.436ZM122.436 43.8H121.936V44.3H122.436V43.8ZM128.036 43.8H128.536V43.3H128.036V43.8ZM128.036 44.5H122.436V45.5H128.036V44.5ZM122.436 44.5C122.178 44.5 121.968 44.4161 121.781 44.2379L121.091 44.9621C121.464 45.3173 121.921 45.5 122.436 45.5V44.5ZM121.798 44.2552C121.62 44.0681 121.536 43.8583 121.536 43.6H120.536C120.536 44.1151 120.719 44.5719 121.074 44.9448L121.798 44.2552ZM121.536 43.6V39.4H120.536V43.6H121.536ZM121.536 39.4C121.536 39.1422 121.619 38.9438 121.79 38.7736L121.083 38.0664C120.719 38.4295 120.536 38.8845 120.536 39.4H121.536ZM121.79 38.7736C121.978 38.5848 122.186 38.5 122.436 38.5V37.5C121.913 37.5 121.454 37.6952 121.083 38.0664L121.79 38.7736ZM122.436 38.5H126.636V37.5H122.436V38.5ZM126.636 38.5C126.886 38.5 127.082 38.5839 127.254 38.7648L127.978 38.0752C127.617 37.6961 127.16 37.5 126.636 37.5V38.5ZM127.271 38.7821C127.452 38.9544 127.536 39.1502 127.536 39.4H128.536C128.536 38.8765 128.34 38.419 127.961 38.0579L127.271 38.7821ZM127.536 39.4V40.8H128.536V39.4H127.536ZM127.683 40.4464L126.283 41.8464L126.99 42.5536L128.39 41.1536L127.683 40.4464ZM126.636 41.7H122.636V42.7H126.636V41.7ZM122.99 42.5536L124.19 41.3536L123.483 40.6464L122.283 41.8464L122.99 42.5536ZM123.836 41.5H126.636V40.5H123.836V41.5ZM127.136 41V39.2H126.136V41H127.136ZM126.636 38.7H122.436V39.7H126.636V38.7ZM121.936 39.2V43.8H122.936V39.2H121.936ZM122.436 44.3H128.036V43.3H122.436V44.3ZM127.536 43.8V45H128.536V43.8H127.536ZM143.039 44.98V45.48H143.539V44.98H143.039ZM140.239 44.98L139.785 45.1881L139.918 45.48H140.239V44.98ZM136.439 36.68L136.894 36.4719L136.76 36.18H136.439V36.68ZM135.639 36.68V36.18H134.756L135.21 36.9372L135.639 36.68ZM136.239 37.68H136.739V37.5415L136.668 37.4228L136.239 37.68ZM136.239 44.98V45.48H136.739V44.98H136.239ZM134.639 44.98H134.139V45.48H134.639V44.98ZM134.639 35.18V34.68H134.139V35.18H134.639ZM137.459 35.18L137.914 34.9728L137.781 34.68H137.459V35.18ZM141.239 43.48L140.784 43.6872L140.918 43.98H141.239V43.48ZM142.039 43.48V43.98H142.922L142.468 43.2228L142.039 43.48ZM141.439 42.48H140.939V42.6185L141.01 42.7372L141.439 42.48ZM141.439 35.18V34.68H140.939V35.18H141.439ZM143.039 35.18H143.539V34.68H143.039V35.18ZM143.039 44.48H140.239V45.48H143.039V44.48ZM140.694 44.7719L136.894 36.4719L135.985 36.8881L139.785 45.1881L140.694 44.7719ZM136.439 36.18H135.639V37.18H136.439V36.18ZM135.21 36.9372L135.81 37.9372L136.668 37.4228L136.068 36.4228L135.21 36.9372ZM135.739 37.68V44.98H136.739V37.68H135.739ZM136.239 44.48H134.639V45.48H136.239V44.48ZM135.139 44.98V35.18H134.139V44.98H135.139ZM134.639 35.68H137.459V34.68H134.639V35.68ZM137.004 35.3872L140.784 43.6872L141.694 43.2728L137.914 34.9728L137.004 35.3872ZM141.239 43.98H142.039V42.98H141.239V43.98ZM142.468 43.2228L141.868 42.2228L141.01 42.7372L141.61 43.7372L142.468 43.2228ZM141.939 42.48V35.18H140.939V42.48H141.939ZM141.439 35.68H143.039V34.68H141.439V35.68ZM142.539 35.18V44.98H143.539V35.18H142.539ZM153.231 45V45.5H153.731V45H153.231ZM146.631 44.6L146.269 44.9448L146.278 44.9537L146.287 44.9621L146.631 44.6ZM146.631 38.42L146.278 38.0664L146.278 38.0664L146.631 38.42ZM152.811 38.42L152.449 38.7648L152.458 38.7737L152.467 38.7821L152.811 38.42ZM153.231 40.8L153.585 41.1536L153.731 41.0071V40.8H153.231ZM151.831 42.2V42.7H152.038L152.185 42.5536L151.831 42.2ZM147.831 42.2L147.478 41.8464L146.624 42.7H147.831V42.2ZM149.031 41V40.5H148.824L148.678 40.6464L149.031 41ZM151.831 41V41.5H152.331V41H151.831ZM151.831 39.2H152.331V38.7H151.831V39.2ZM147.631 39.2V38.7H147.131V39.2H147.631ZM147.631 43.8H147.131V44.3H147.631V43.8ZM153.231 43.8H153.731V43.3H153.231V43.8ZM153.231 44.5H147.631V45.5H153.231V44.5ZM147.631 44.5C147.373 44.5 147.163 44.4161 146.976 44.2379L146.287 44.9621C146.66 45.3173 147.116 45.5 147.631 45.5V44.5ZM146.993 44.2552C146.815 44.0681 146.731 43.8583 146.731 43.6H145.731C145.731 44.1151 145.914 44.5719 146.269 44.9448L146.993 44.2552ZM146.731 43.6V39.4H145.731V43.6H146.731ZM146.731 39.4C146.731 39.1422 146.815 38.9438 146.985 38.7736L146.278 38.0664C145.915 38.4295 145.731 38.8845 145.731 39.4H146.731ZM146.985 38.7736C147.174 38.5848 147.381 38.5 147.631 38.5V37.5C147.109 37.5 146.649 37.6952 146.278 38.0664L146.985 38.7736ZM147.631 38.5H151.831V37.5H147.631V38.5ZM151.831 38.5C152.081 38.5 152.277 38.5839 152.449 38.7648L153.173 38.0752C152.812 37.6961 152.355 37.5 151.831 37.5V38.5ZM152.467 38.7821C152.647 38.9544 152.731 39.1502 152.731 39.4H153.731C153.731 38.8765 153.535 38.419 153.156 38.0579L152.467 38.7821ZM152.731 39.4V40.8H153.731V39.4H152.731ZM152.878 40.4464L151.478 41.8464L152.185 42.5536L153.585 41.1536L152.878 40.4464ZM151.831 41.7H147.831V42.7H151.831V41.7ZM148.185 42.5536L149.385 41.3536L148.678 40.6464L147.478 41.8464L148.185 42.5536ZM149.031 41.5H151.831V40.5H149.031V41.5ZM152.331 41V39.2H151.331V41H152.331ZM151.831 38.7H147.631V39.7H151.831V38.7ZM147.131 39.2V43.8H148.131V39.2H147.131ZM147.631 44.3H153.231V43.3H147.631V44.3ZM152.731 43.8V45H153.731V43.8H152.731ZM165.431 38L165.913 38.1323L166.086 37.5H165.431V38ZM163.511 45V45.5H163.892L163.993 45.1323L163.511 45ZM161.311 45L160.823 45.1102L160.911 45.5H161.311V45ZM160.231 40.22L160.718 40.1098L160.63 39.72H160.231V40.22ZM160.031 40.22V39.72H159.634L159.544 40.1059L160.031 40.22ZM158.911 45V45.5H159.307L159.397 45.1141L158.911 45ZM156.711 45L156.228 45.1297L156.327 45.5H156.711V45ZM154.831 38V37.5H154.179L154.348 38.1297L154.831 38ZM156.331 38L156.819 37.8914L156.732 37.5H156.331V38ZM157.631 43.84L157.143 43.9486L157.23 44.34H157.631V43.84ZM158.031 43.84V44.34H158.422L158.516 43.9597L158.031 43.84ZM159.471 38V37.5H159.079L158.985 37.8803L159.471 38ZM160.871 38L161.358 37.8866L161.268 37.5H160.871V38ZM162.231 43.84L161.744 43.9534L161.834 44.34H162.231V43.84ZM162.631 43.84V44.34H163.032L163.119 43.9486L162.631 43.84ZM163.931 38V37.5H163.53L163.443 37.8914L163.931 38ZM164.948 37.8677L163.028 44.8677L163.993 45.1323L165.913 38.1323L164.948 37.8677ZM163.511 44.5H161.311V45.5H163.511V44.5ZM161.798 44.8898L160.718 40.1098L159.743 40.3302L160.823 45.1102L161.798 44.8898ZM160.231 39.72H160.031V40.72H160.231V39.72ZM159.544 40.1059L158.424 44.8859L159.397 45.1141L160.517 40.3341L159.544 40.1059ZM158.911 44.5H156.711V45.5H158.911V44.5ZM157.193 44.8703L155.313 37.8703L154.348 38.1297L156.228 45.1297L157.193 44.8703ZM154.831 38.5H156.331V37.5H154.831V38.5ZM155.843 38.1086L157.143 43.9486L158.119 43.7314L156.819 37.8914L155.843 38.1086ZM157.631 44.34H158.031V43.34H157.631V44.34ZM158.516 43.9597L159.956 38.1197L158.985 37.8803L157.545 43.7203L158.516 43.9597ZM159.471 38.5H160.871V37.5H159.471V38.5ZM160.384 38.1134L161.744 43.9534L162.718 43.7266L161.358 37.8866L160.384 38.1134ZM162.231 44.34H162.631V43.34H162.231V44.34ZM163.119 43.9486L164.419 38.1086L163.443 37.8914L162.143 43.7314L163.119 43.9486ZM163.931 38.5H165.431V37.5H163.931V38.5ZM173.338 38L173.688 38.3565L174.559 37.5H173.338V38ZM172.118 39.2V39.7H172.322L172.468 39.5565L172.118 39.2ZM168.738 39.2V38.7H168.238V39.2H168.738ZM168.738 40.8H168.238V41.3H168.738V40.8ZM172.518 41.22L172.156 41.5648L172.164 41.5737L172.173 41.5821L172.518 41.22ZM172.518 44.6L172.871 44.9536L172.871 44.9536L172.518 44.6ZM167.338 45H166.838V45.5H167.338V45ZM167.338 43.8V43.3H166.838V43.8H167.338ZM171.538 43.8V44.3H172.038V43.8H171.538ZM171.538 42H172.038V41.5H171.538V42ZM167.738 41.6L167.376 41.9448L167.384 41.9537L167.393 41.9621L167.738 41.6ZM167.738 38.42L167.384 38.0664L167.384 38.0664L167.738 38.42ZM172.987 37.6435L171.767 38.8435L172.468 39.5565L173.688 38.3565L172.987 37.6435ZM172.118 38.7H168.738V39.7H172.118V38.7ZM168.238 39.2V40.8H169.238V39.2H168.238ZM168.738 41.3H171.538V40.3H168.738V41.3ZM171.538 41.3C171.787 41.3 171.983 41.3839 172.156 41.5648L172.88 40.8752C172.519 40.4961 172.061 40.3 171.538 40.3V41.3ZM172.173 41.5821C172.354 41.7544 172.438 41.9502 172.438 42.2H173.438C173.438 41.6765 173.242 41.219 172.862 40.8579L172.173 41.5821ZM172.438 42.2V43.6H173.438V42.2H172.438ZM172.438 43.6C172.438 43.8505 172.353 44.0577 172.164 44.2464L172.871 44.9536C173.242 44.5823 173.438 44.1228 173.438 43.6H172.438ZM172.164 44.2464C171.994 44.4167 171.795 44.5 171.538 44.5V45.5C172.053 45.5 172.508 45.3166 172.871 44.9536L172.164 44.2464ZM171.538 44.5H167.338V45.5H171.538V44.5ZM167.838 45V43.8H166.838V45H167.838ZM167.338 44.3H171.538V43.3H167.338V44.3ZM172.038 43.8V42H171.038V43.8H172.038ZM171.538 41.5H168.738V42.5H171.538V41.5ZM168.738 41.5C168.479 41.5 168.269 41.4161 168.082 41.2379L167.393 41.9621C167.766 42.3173 168.223 42.5 168.738 42.5V41.5ZM168.1 41.2552C167.922 41.0681 167.838 40.8583 167.838 40.6H166.838C166.838 41.1151 167.02 41.5719 167.376 41.9448L168.1 41.2552ZM167.838 40.6V39.4H166.838V40.6H167.838ZM167.838 39.4C167.838 39.1422 167.921 38.9438 168.091 38.7736L167.384 38.0664C167.021 38.4295 166.838 38.8845 166.838 39.4H167.838ZM168.091 38.7736C168.28 38.5848 168.487 38.5 168.738 38.5V37.5C168.215 37.5 167.755 37.6952 167.384 38.0664L168.091 38.7736ZM168.738 38.5H173.338V37.5H168.738V38.5Z" fill="#FF3225"/>
</svg>
